<svg xmlns="http://www.w3.org/2000/svg" viewBox="0 0 64 64">
    <path fill="#ff8460"
          d="M298,103.905738 C177.558333,103.905738 79.4666667,202.079022 79.4666667,322.620902 L79.4666667,438.813332 C30.3432341,492.016412 0,562.772637 0,640.752049 C0,805.254444 133.634385,939 298,939 C462.365635,939 596,805.254444 596,640.752049 C596,562.772637 565.656766,492.016412 516.533333,438.813332 L516.533333,322.620902 C516.533333,202.079022 418.441667,103.905738 298,103.905738 Z M298,143.672131 C397.022917,143.672131 476.8,223.515593 476.8,322.620902 L476.8,402.775038 C426.900516,365.105706 365.127599,342.504098 298,342.504098 C230.872401,342.504098 169.099484,365.105706 119.2,402.775038 L119.2,322.620902 C119.2,223.515593 198.977083,143.672131 298,143.672131 Z M298.64086,0 C449.663955,0 571.647312,122.084853 571.647312,273.233607 C571.647312,424.38236 449.663955,546.467213 298.64086,546.467213 C147.617765,546.467213 25.6344086,424.38236 25.6344086,273.233607 C25.6344086,122.084853 147.617765,0 298.64086,0 Z M298,383.553279 C441.578294,383.553279 557.548387,499.619864 557.548387,643.317623 C557.548387,787.015382 441.578294,903.081967 298,903.081967 C154.421706,903.081967 38.4516129,787.015382 38.4516129,643.317623 C38.4516129,499.619864 154.421706,383.553279 298,383.553279 Z M298.64086,622.151639 C263.967652,622.151639 235.836559,650.306139 235.836559,685.008197 C235.836559,712.262402 253.418498,735.260715 277.706093,743.936219 L277.706093,789.769126 C277.706093,801.309192 287.110388,810.721311 298.64086,810.721311 C310.171332,810.721311 319.575627,801.309192 319.575627,789.769126 L319.575627,743.936219 C343.863223,735.260715 361.445161,712.262402 361.445161,685.008197 C361.445161,650.306139 333.314068,622.151639 298.64086,622.151639 Z"
          transform="translate(242 71)"/>
</svg>
