<svg
   xmlns="http://www.w3.org/2000/svg"
   width="210mm"
   height="297mm"
   viewBox="0 0 744.09448819 1052.3622047">
    <path
       style="fill:#9c9c9c;fill-opacity:0.45098039;fill-rule:evenodd;stroke:#9c9c9c;stroke-width:1.06048119px;stroke-linecap:butt;stroke-linejoin:miter;stroke-opacity:0"
       d="m 139.32394,274.20898 c -2.43478,0 -4.74475,0.50716 -6.83985,1.41211 -1.96625,0.82082 -3.73345,2.01806 -5.21093,3.50391 -3.1756,3.1164 -5.14454,7.45787 -5.14454,12.2793 l 0,90.91406 c 0,9.5259 7.66941,17.19336 17.19532,17.19336 9.5259,0 17.19336,-7.66746 17.19336,-17.19336 l 0,-75.67774 75.13867,0 c 8.93724,0 16.13281,-7.19361 16.13281,-16.13085 0,-8.93723 -7.19557,-16.13282 -16.13281,-16.13282 l -90.04297,0 c -0.75087,-0.0994 -1.51019,-0.16797 -2.28906,-0.16797 z"
    />
    <path
       style="fill:#9c9c9c;fill-opacity:0.45098039;fill-rule:evenodd;stroke:#9c9c9c;stroke-width:1.06048119px;stroke-linecap:butt;stroke-linejoin:miter;stroke-opacity:0"
       d="m 631.50851,291.04712 c 0,-2.43478 -0.50716,-4.74475 -1.41211,-6.83985 -0.82082,-1.96625 -2.01806,-3.73345 -3.50391,-5.21093 -3.1164,-3.1756 -7.45787,-5.14454 -12.2793,-5.14454 l -90.91406,0 c -9.5259,0 -17.19336,7.66941 -17.19336,17.19532 0,9.5259 7.66746,17.19336 17.19336,17.19336 l 75.67774,0 0,75.13867 c 0,8.93724 7.19361,16.13281 16.13085,16.13281 8.93723,0 16.13282,-7.19557 16.13282,-16.13281 l 0,-90.04297 c 0.0994,-0.75087 0.16797,-1.51019 0.16797,-2.28906 z"
    />
    <path
       style="fill:#9c9c9c;fill-opacity:0.45098039;fill-rule:evenodd;stroke:#9c9c9c;stroke-width:1.06048119px;stroke-linecap:butt;stroke-linejoin:miter;stroke-opacity:0"
       d="m 122.12824,684.96063 c 0,2.43478 0.50716,4.74475 1.41211,6.83985 0.82082,1.96626 2.01806,3.73346 3.50391,5.21094 3.1164,3.1756 7.45787,5.14454 12.2793,5.14454 l 90.91406,0 c 9.5259,0 17.19336,-7.66941 17.19336,-17.19533 0,-9.5259 -7.66746,-17.19336 -17.19336,-17.19336 l -75.67774,0 0,-75.13866 c 0,-8.93724 -7.19361,-16.13281 -16.13085,-16.13281 -8.93723,0 -16.13282,7.19557 -16.13282,16.13281 l 0,90.04296 c -0.0994,0.75087 -0.16797,1.51019 -0.16797,2.28906 z"
    />
    <path
       style="fill:#9c9c9c;fill-opacity:0.45098039;fill-rule:evenodd;stroke:#9c9c9c;stroke-width:1.06048119px;stroke-linecap:butt;stroke-linejoin:miter;stroke-opacity:0"
       d="m 614.67107,702.15643 c 2.43478,0 4.74475,-0.50716 6.83985,-1.41211 1.96626,-0.82082 3.73346,-2.01806 5.21094,-3.50391 3.1756,-3.1164 5.14454,-7.45787 5.14454,-12.2793 l 0,-90.91406 c 0,-9.5259 -7.66941,-17.19336 -17.19533,-17.19336 -9.5259,0 -17.19336,7.66746 -17.19336,17.19336 l 0,75.67774 -75.13866,0 c -8.93724,0 -16.13281,7.19361 -16.13281,16.13085 0,8.93723 7.19557,16.13282 16.13281,16.13282 l 90.04296,0 c 0.75087,0.0994 1.51019,0.16797 2.28906,0.16797 z"
    />
</svg>